<svg version="1.1" id="Layer_1" xmlns="http://www.w3.org/2000/svg" x="0" y="0" viewBox="0 0 32 32" style="enable-background:new 0 0 32 32" xml:space="preserve"><style></style><path d="M18 26a1 1 0 0 1-.406-.086L7.218 21.307H4a1 1 0 0 1-1-1v-8.614a1 1 0 0 1 1-1h3.218l10.376-4.607A1 1 0 0 1 19 7v18a1 1 0 0 1-1 1zM5 19.307h2.43c.14 0 .278.029.405.086L17 23.462V8.538l-9.165 4.07a1.002 1.002 0 0 1-.405.085H5v6.614zM22.5 19.75a1 1 0 0 1-.707-1.707l5.5-5.5a1 1 0 1 1 1.414 1.414l-5.5 5.5a.997.997 0 0 1-.707.293z"/><path d="M28 19.75a.997.997 0 0 1-.707-.293l-5.5-5.5a1 1 0 1 1 1.414-1.414l5.5 5.5A1 1 0 0 1 28 19.75z"/></svg>